<svg width="48" height="48" viewBox="0 0 48 48" fill="none" xmlns="http://www.w3.org/2000/svg">
  <defs>
    <linearGradient id="g" x1="6" y1="4" x2="42" y2="44" gradientUnits="userSpaceOnUse">
      <stop stop-color="#818cf8"/>
      <stop offset="0.5" stop-color="#6366f1"/>
      <stop offset="1" stop-color="#4f46e5"/>
    </linearGradient>
    <linearGradient id="s" x1="0" y1="0" x2="0" y2="1">
      <stop stop-color="#a5f3fc"/>
      <stop offset="1" stop-color="#67e8f9"/>
    </linearGradient>
  </defs>
  <rect x="2" y="2" width="44" height="44" rx="13" fill="url(#g)"/>
  <rect x="2" y="2" width="44" height="44" rx="13" fill="white" fill-opacity="0.06"/>
  <g fill="white" fill-opacity="0.18">
    <rect x="12" y="28" width="4.5" height="8" rx="2.25"/>
    <rect x="21.75" y="23" width="4.5" height="13" rx="2.25"/>
    <rect x="31.5" y="18" width="4.5" height="18" rx="2.25"/>
  </g>
  <path d="M12 31 L20 25 L27 29 L36 17" stroke="white" stroke-width="2.75" stroke-linecap="round" stroke-linejoin="round"/>
  <path d="M36 9 C36.4 13.2 37.8 14.6 42 15 C37.8 15.4 36.4 16.8 36 21 C35.6 16.8 34.2 15.4 30 15 C34.2 14.6 35.6 13.2 36 9 Z" fill="url(#s)"/>
</svg>
